<svg width="1419" height="669" viewBox="0 0 1419 669" fill="none" xmlns="http://www.w3.org/2000/svg">
<path d="M380.538 2.37906L1434.19 2.37908L1327.02 667.879L0.923689 618.379L0.923689 2.37907L380.538 2.37906Z" fill="white"/>
<path d="M30 531.434C30 480.645 76.6004 442.328 126.598 451.263V451.263C148.713 455.215 168.463 468.167 180.743 486.98V486.98C216.119 541.178 176.619 613 111.898 613V613C66.8501 613 30 576.482 30 531.434V531.434Z" fill="#492FE9"/>
<path d="M50 514.434C50 463.645 96.6004 425.328 146.598 434.263V434.263C168.713 438.215 188.463 451.167 200.743 469.98V469.98C236.119 524.178 196.619 596 131.898 596V596C86.8501 596 50 559.482 50 514.434V514.434Z" fill="#9788F0"/>
<rect width="306.046" height="282.503" rx="141.252" transform="matrix(0.994951 0.100359 -0.0728811 0.997341 1239.59 194)" fill="#FBB500"/>
<rect y="17" width="184" height="177" rx="88.5" fill="#F71D0F"/>
</svg>
